<svg xmlns="http://www.w3.org/2000/svg" width="128" height="128" viewBox="0 0 128 128" fill="none">
  <defs>
    <linearGradient id="bg" x1="18" y1="12" x2="112" y2="118" gradientUnits="userSpaceOnUse">
      <stop stop-color="#0C1733"/>
      <stop offset="0.55" stop-color="#123C85"/>
      <stop offset="1" stop-color="#1C88E5"/>
    </linearGradient>
    <radialGradient id="glow" cx="0" cy="0" r="1" gradientUnits="userSpaceOnUse" gradientTransform="translate(93 24) rotate(137) scale(41 30)">
      <stop stop-color="#C7EBFF" stop-opacity="0.95"/>
      <stop offset="1" stop-color="#C7EBFF" stop-opacity="0"/>
    </radialGradient>
    <linearGradient id="letter" x1="37" y1="26" x2="79" y2="98" gradientUnits="userSpaceOnUse">
      <stop stop-color="#F4FBFF"/>
      <stop offset="0.62" stop-color="#BEE7FF"/>
      <stop offset="1" stop-color="#6BC4FF"/>
    </linearGradient>
    <linearGradient id="shadow" x1="43" y1="34" x2="78" y2="99" gradientUnits="userSpaceOnUse">
      <stop stop-color="#0A1C42" stop-opacity="0.26"/>
      <stop offset="1" stop-color="#0A1C42" stop-opacity="0"/>
    </linearGradient>
    <linearGradient id="spark" x1="89" y1="17" x2="108" y2="42" gradientUnits="userSpaceOnUse">
      <stop stop-color="#FFE89B"/>
      <stop offset="1" stop-color="#FFC54D"/>
    </linearGradient>
  </defs>

  <rect x="8" y="8" width="112" height="112" rx="28" fill="url(#bg)"/>
  <rect x="8" y="8" width="112" height="112" rx="28" fill="url(#glow)"/>
  <path d="M24 94C39.333 78.667 56.667 71 76 71C89.333 71 100.667 74.333 110 81V108H24V94Z" fill="#07152D" fill-opacity="0.28"/>

  <g>
    <path d="M76 28H88V73.5C88 82.667 85.25 89.792 79.75 94.875C74.292 99.917 66.917 102.438 57.625 102.438C49.417 102.438 42.625 100.708 37.25 97.25V85.438C43.292 90.146 49.875 92.5 57 92.5C62.792 92.5 67.313 90.896 70.563 87.688C73.813 84.438 75.438 79.625 75.438 73.25V28.563L76 28Z" fill="url(#shadow)"/>
    <path d="M74 24H86V73C86 82.583 83.188 90.063 77.563 95.438C71.979 100.771 64.417 103.438 54.875 103.438C46.25 103.438 39.042 101.521 33.25 97.688V84.188C39.667 89.938 46.646 92.813 54.188 92.813C60.104 92.813 64.708 91.146 68 87.813C71.292 84.438 72.938 79.417 72.938 72.75V36.438H52.063V24H74Z" fill="url(#letter)"/>
    <path d="M51.5 24H72.938V36.438H51.5V24Z" fill="#DFF4FF" fill-opacity="0.88"/>
    <path d="M40.313 96.625C38.688 95.708 37 94.729 35.25 93.688V85.563C36.75 86.813 38.438 87.979 40.313 89.063V96.625Z" fill="#EAF8FF" fill-opacity="0.55"/>
  </g>

  <g transform="translate(83 16)">
    <path d="M12 0.8C12.455 0.8 12.856 1.102 12.981 1.54L14.544 6.998C14.765 7.77 15.369 8.374 16.14 8.595L21.599 10.157C22.036 10.283 22.338 10.683 22.338 11.138C22.338 11.594 22.036 11.994 21.599 12.119L16.14 13.682C15.369 13.903 14.765 14.507 14.544 15.279L12.981 20.737C12.856 21.175 12.455 21.477 12 21.477C11.545 21.477 11.144 21.175 11.019 20.737L9.456 15.279C9.235 14.507 8.631 13.903 7.86 13.682L2.401 12.119C1.964 11.994 1.662 11.594 1.662 11.138C1.662 10.683 1.964 10.283 2.401 10.157L7.86 8.595C8.631 8.374 9.235 7.77 9.456 6.998L11.019 1.54C11.144 1.102 11.545 0.8 12 0.8Z" fill="url(#spark)"/>
    <path d="M12 4.25L12.957 7.593C13.251 8.621 14.057 9.427 15.085 9.721L18.428 10.678L15.085 11.635C14.057 11.929 13.251 12.735 12.957 13.763L12 17.106L11.043 13.763C10.749 12.735 9.943 11.929 8.915 11.635L5.572 10.678L8.915 9.721C9.943 9.427 10.749 8.621 11.043 7.593L12 4.25Z" fill="#FFF7D7"/>
  </g>

  <g transform="translate(75 27) scale(0.56)">
    <path d="M12 0.8C12.455 0.8 12.856 1.102 12.981 1.54L14.544 6.998C14.765 7.77 15.369 8.374 16.14 8.595L21.599 10.157C22.036 10.283 22.338 10.683 22.338 11.138C22.338 11.594 22.036 11.994 21.599 12.119L16.14 13.682C15.369 13.903 14.765 14.507 14.544 15.279L12.981 20.737C12.856 21.175 12.455 21.477 12 21.477C11.545 21.477 11.144 21.175 11.019 20.737L9.456 15.279C9.235 14.507 8.631 13.903 7.86 13.682L2.401 12.119C1.964 11.994 1.662 11.594 1.662 11.138C1.662 10.683 1.964 10.283 2.401 10.157L7.86 8.595C8.631 8.374 9.235 7.77 9.456 6.998L11.019 1.54C11.144 1.102 11.545 0.8 12 0.8Z" fill="#9EE7FF"/>
  </g>
</svg>
